<?xml version="1.0" encoding="utf-8"?>
<!-- Generator: Adobe Illustrator 15.0.2, SVG Export Plug-In . SVG Version: 6.00 Build 0)  -->
<!DOCTYPE svg PUBLIC "-//W3C//DTD SVG 1.1//EN" "http://www.w3.org/Graphics/SVG/1.1/DTD/svg11.dtd">
<svg version="1.1" id="Layer_1" xmlns="http://www.w3.org/2000/svg" xmlns:xlink="http://www.w3.org/1999/xlink" x="0px" y="0px"
	 width="500px" height="250px" viewBox="0 0 500 250" enable-background="new 0 0 500 250" xml:space="preserve">
<g>
	<g>
		<path fill="#FFFFFF" d="M81.299,67.315c5.16-9.755,3.421-20.592-7.446-25.02c-5.081-2.069-10,0.672-13.864,3.894
			c-12.284,10.239-21.09,25.488-29.297,38.962c-7.552,12.399-16.15,25.865-20.236,39.934c-3.244,11.167-2.039,27.87,8.325,35.173
			c9.446,6.658,20.742-0.921,27.53-7.66c6.907-6.856,11.866-15.5,16.869-23.761c4.774-7.881,9.42-15.839,13.941-23.869
			c5.971-10.606,11.589-21.411,17.774-31.897c8.456-14.334,18.102-27.938,27.873-41.396c-2.318-0.56-4.636-1.119-6.954-1.679
			c-14.936,25.047-32.025,50.381-41.303,78.268c-3.412,10.254-5.742,20.851-8.153,31.372c-4.306,18.792-8.777,37.537-13.646,56.192
			c-0.973,3.727,6.512,2.906,7.625,0.209c8.565-20.762,15.906-42.025,24.936-62.596c7.15-16.286,15.828-33.832,30.931-44.141
			c-1.943-1.009-3.887-2.019-5.83-3.028c-8.595,8.721-12.507,21.477-15.247,33.099c-2.153,9.132-4.712,20.778-2.239,30.119
			c0.928,3.504,4.24,4.639,7.473,3.296c3.19-1.325,4.716-5.236,6.063-8.133c4.834-10.396,9.214-24.183,19.739-30.266
			c-1.812-0.946-3.625-1.891-5.437-2.837c-4.118,8.676-1.48,17.258-1.197,26.305c0.09,2.895,3.601,3.041,5.652,2.08
			c0.685-0.319-0.288,0.032,1.061-0.332c0.906-0.244,1.83-0.424,2.751-0.602c2.803-0.54,5.654-0.857,8.487-1.189
			c8.471-0.994,16.987-1.612,25.496-2.164c21.706-1.407,43.478-2.08,65.228-2.049c19.126,0.027,38.204,1.334,57.303,2.201
			c21.552,0.979,43.104,1.977,64.615,3.662c18.348,1.438,37.131,2.952,55.019,7.507c5.477,1.396,20.957,5.032,16.496,12.767
			c-2.258,3.912-6.433,7.052-9.906,9.805c-5.617,4.45-11.664,8.373-17.81,12.048c-14.788,8.847-30.512,16.421-46.69,22.359
			c-12.91,4.739-27.776,9.795-41.744,8.327c-3.58-0.375-7.918-1.498-10.154-4.584c-0.915-1.262-1.123-1.894-1.391-2.496
			c-3.825-8.641-4.223-17.987-2.146-27.101c3.578-15.702,16.099-27.835,29.548-35.93c28.846-17.362,64.422-22.885,97.341-26.198
			c22.804-2.294,45.751-3.019,68.659-2.994c4.474,0.005,5.881-5.804,0.646-5.81c-45.251-0.048-92.097,2.146-135.649,15.537
			c-21.525,6.618-44.256,16.813-58.386,35.11c-8.072,10.453-12.106,23.215-10.956,36.383c0.751,8.598,3.295,17.723,11.602,21.707
			c11.03,5.293,26.008,1.731,37.162-1.146c16.571-4.277,32.576-11.096,47.85-18.74c13.607-6.811,27.167-14.533,38.986-24.181
			c5.343-4.358,15.427-12.446,10.532-20.261c-2.389-3.813-7.455-5.887-11.449-7.416c-6.663-2.553-13.805-3.979-20.803-5.254
			c-19.685-3.584-39.788-5.012-59.729-6.309c-40.322-2.623-81.021-5.224-121.438-4.732c-20.047,0.244-40.106,1.051-60.1,2.531
			c-7.132,0.527-14.265,1.153-21.356,2.09c-4.128,0.545-8.711,0.953-12.537,2.744c1.884,0.692,3.768,1.387,5.652,2.08
			c-0.262-8.363-3.032-16.786,0.768-24.792c1.524-3.211-3.51-3.951-5.437-2.837c-9.306,5.378-14.757,14.788-19.262,24.23
			c-1.873,3.927-3.505,7.965-5.42,11.871c-0.355,0.725-1.301,2.41-1.461,2.549c2.607-2.242,4.62,0.6,4.189-0.506
			c-0.23-0.592-0.335-1.235-0.448-1.856c-1.562-8.646,0.772-18.747,2.669-27.143c2.384-10.551,6.138-22.28,13.904-30.16
			c3.397-3.446-3.527-4.6-5.83-3.028c-14.816,10.113-23.82,26.597-31.21,42.479c-10.145,21.807-17.738,44.738-26.905,66.957
			c2.542,0.068,5.083,0.14,7.625,0.209c4.787-18.344,9.2-36.771,13.43-55.25c2.415-10.549,4.73-21.159,8.15-31.439
			c9.195-27.636,26.295-52.817,41.092-77.631c2.153-3.611-5.218-4.07-6.954-1.679c-12.126,16.701-23.802,33.679-33.879,51.707
			c-10.454,18.7-20.473,37.653-32.046,55.705c-4.426,6.903-11.963,19.021-21.133,20.175c-5.527,0.694-8.954-5.604-10.508-9.931
			c-4.701-13.095,0.126-25.1,5.979-36.771c8.225-16.402,17.823-32.369,28.819-47.064c3.951-5.28,8.191-10.841,13.572-14.753
			c0.407-0.296,1.812-1.002,1.58-0.923c0.207-0.07,1.59,0.399,3.343,1.491c6.307,3.931,4.797,11.941,1.892,17.432
			C71.812,70.275,79.659,70.416,81.299,67.315L81.299,67.315z"/>
	</g>
</g>
</svg>
