<?xml version="1.0" encoding="utf-8"?>
<!-- Generator: Adobe Illustrator 15.0.2, SVG Export Plug-In . SVG Version: 6.00 Build 0)  -->
<!DOCTYPE svg PUBLIC "-//W3C//DTD SVG 1.1//EN" "http://www.w3.org/Graphics/SVG/1.1/DTD/svg11.dtd">
<svg version="1.1" id="Layer_1" xmlns="http://www.w3.org/2000/svg" xmlns:xlink="http://www.w3.org/1999/xlink" x="0px" y="0px"
	 width="200px" height="200px" viewBox="0 0 200 200" enable-background="new 0 0 200 200" xml:space="preserve">
<g id="design" display="none">
	<g display="inline">
		<rect x="36.777" y="77.779" fill="#AD2D2D" width="85.028" height="85.028"/>
		<polygon fill="#AD2D2D" points="73.845,40.713 73.845,70.718 128.866,70.718 128.866,125.741 158.874,125.741 158.874,40.713 		
			"/>
	</g>
	<g display="inline">
		<g>
			<polygon fill="#FFFDFD" points="147.837,50.782 81.711,109.458 93.23,123.812 153.956,56.9 			"/>
			<g>
				<path fill="#FFFDFD" d="M73.677,113.011c-6.055,0-11.266,3.562-13.691,8.695c-0.012-0.015-0.025-0.028-0.039-0.041
					c-0.036,0.128-0.084,0.25-0.123,0.379c-0.301,0.679-0.547,1.386-0.746,2.117c-6.808,17.114-14.211,25.185-14.211,25.185
					s14.53-0.039,14.674-0.047c7.489-0.33,14.786-2.695,20.073-5.965c5.418-3.867,8.813-7.859,9.151-14.393l-13.46-15.84
					C74.77,113.045,74.228,113.011,73.677,113.011z"/>
			</g>
		</g>
	</g>
</g>
<g id="develop" display="none">
	<g display="inline">
		<rect x="19.528" y="17.877" fill="#AD2D2D" width="69.285" height="6.835"/>
		<rect x="19.528" y="38.383" fill="#AD2D2D" width="69.285" height="6.835"/>
		<rect x="19.528" y="28.13" fill="#AD2D2D" width="50.021" height="6.835"/>
		<rect x="19.528" y="48.636" fill="#AD2D2D" width="50.021" height="6.835"/>
		<rect x="20.149" y="100.211" fill="#AD2D2D" width="50.021" height="6.835"/>
		<rect x="20.149" y="162.35" fill="#AD2D2D" width="50.021" height="6.836"/>
		<rect x="20.149" y="172.293" fill="#AD2D2D" width="50.021" height="6.834"/>
		<rect x="36.927" y="58.889" fill="#AD2D2D" width="69.285" height="6.835"/>
		<rect x="36.927" y="79.395" fill="#AD2D2D" width="69.285" height="6.835"/>
		<rect x="36.927" y="111.086" fill="#AD2D2D" width="69.285" height="6.835"/>
		<rect x="60.54" y="121.027" fill="#AD2D2D" width="69.285" height="6.836"/>
		<rect x="60.54" y="130.971" fill="#AD2D2D" width="69.285" height="6.834"/>
		<rect x="36.927" y="69.142" fill="#AD2D2D" width="50.022" height="6.835"/>
		<rect x="60.54" y="141.223" fill="#AD2D2D" width="50.022" height="6.836"/>
		<rect x="36.927" y="89.647" fill="#AD2D2D" width="50.022" height="6.835"/>
		<rect x="36.927" y="151.787" fill="#AD2D2D" width="50.022" height="6.834"/>
		<g>
			<path fill="#FFFDFD" d="M30.1,98.66l48.494-25.939v12.331L43.71,103.547v0.23l34.884,18.496v12.33L30.1,108.664V98.66z"/>
			<path fill="#FFFDFD" d="M87.087,149.082l24.892-94.274h11.748l-24.892,94.274H87.087z"/>
			<path fill="#FFFDFD" d="M178.852,109.014l-48.492,25.59v-12.33l35.812-18.494v-0.23l-35.812-18.495V72.721l48.492,25.591V109.014
				z"/>
		</g>
	</g>
</g>
<g id="Strategy" display="none">
	<g display="inline">
		<rect x="52.365" y="177.662" fill="#AD2D2D" width="119.305" height="3.51"/>
		<rect x="168.867" y="86.621" fill="#AD2D2D" width="3.507" height="94.551"/>
		<polygon fill="#AD2D2D" points="180.852,91.666 170.686,79.883 160.385,91.666 160.385,87.159 170.611,75.374 180.852,87.154 		
			"/>
		<rect x="51.831" y="160.689" fill="#AD2D2D" width="3.507" height="20.48"/>
	</g>
	<g display="inline">
		<path fill="#AD2D2D" d="M28.26,64.167l3.049,5.212c0.891,1.589,1.719,3.115,2.545,4.639h0.125c0.828-1.715,1.59-3.242,2.418-4.767
			l2.731-5.084H49.62l-10.238,14.81l10.362,16.272H38.813l-3.116-5.594c-0.891-1.524-1.657-3.113-2.416-4.703H33.09
			c-0.762,1.653-1.59,3.178-2.35,4.703l-2.925,5.594H17.2l10.549-15.827L17.453,64.167H28.26z"/>
	</g>
	<g display="inline">
		<path fill="#AD2D2D" d="M64.785,64.167l3.049,5.212c0.891,1.589,1.719,3.115,2.545,4.639h0.125
			c0.829-1.715,1.59-3.242,2.418-4.767l2.731-5.084h10.492l-10.238,14.81l10.362,16.272H75.338l-3.116-5.594
			c-0.89-1.524-1.657-3.113-2.416-4.703h-0.191c-0.762,1.653-1.59,3.178-2.35,4.703l-2.925,5.594H53.725l10.549-15.827
			L53.979,64.167H64.785z"/>
	</g>
	<g display="inline">
		<path fill="#AD2D2D" d="M136.066,135.451l3.05,5.21c0.891,1.59,1.72,3.114,2.546,4.639h0.124c0.827-1.714,1.59-3.239,2.419-4.766
			l2.73-5.083h10.49l-10.236,14.809l10.36,16.271h-10.93l-3.116-5.596c-0.891-1.524-1.656-3.112-2.416-4.701h-0.191
			c-0.762,1.652-1.59,3.177-2.35,4.701l-2.925,5.596h-10.615l10.55-15.828l-10.297-15.252H136.066L136.066,135.451z"/>
	</g>
	<g display="inline">
		<path fill="#AD2D2D" d="M68.718,138.583c0,10.929-7.75,15.937-15.754,15.937c-8.731,0-15.441-5.74-15.441-15.387
			c0-9.706,6.342-15.874,15.993-15.874C62.612,123.259,68.718,129.548,68.718,138.583z M47.107,138.889
			c0,5.127,2.138,8.977,6.105,8.977c3.659,0,5.921-3.6,5.921-9.034c0-4.396-1.709-8.915-5.921-8.915
			C48.817,129.914,47.107,134.493,47.107,138.889z"/>
	</g>
	<g display="inline">
		<path fill="#AD2D2D" d="M143.34,35.685c0,10.93-7.751,15.936-15.755,15.936c-8.729,0-15.44-5.739-15.44-15.386
			c0-9.707,6.342-15.874,15.994-15.874C137.234,20.361,143.34,26.65,143.34,35.685z M121.729,35.991c0,5.128,2.14,8.976,6.105,8.976
			c3.658,0,5.921-3.601,5.921-9.036c0-4.396-1.71-8.914-5.921-8.914C123.438,27.018,121.729,31.597,121.729,35.991z"/>
	</g>
	<g display="inline">
		
			<rect x="99.327" y="129.059" transform="matrix(0.9464 0.3231 -0.3231 0.9464 48.3452 -26.88)" fill="#FFFDFD" width="11.625" height="6.247"/>
		
			<rect x="79.409" y="135.554" transform="matrix(0.9463 0.3233 -0.3233 0.9463 49.9573 -23.4153)" fill="#FFFDFD" width="32.111" height="6.244"/>
		
			<rect x="79.413" y="145.364" transform="matrix(0.9463 0.3232 -0.3232 0.9463 53.115 -22.8856)" fill="#FFFDFD" width="32.106" height="6.244"/>
		
			<rect x="88.646" y="154.696" transform="matrix(0.9463 0.3232 -0.3232 0.9463 56.1084 -22.2126)" fill="#FFFDFD" width="12.565" height="6.242"/>
		<circle fill="#FFFDFD" cx="95.338" cy="81.511" r="37.636"/>
		<polygon fill="#FFFDFD" points="111.35,125.391 80.159,125.391 66.847,105.426 124.658,105.426 		"/>
	</g>
</g>
<circle fill="#E84A3F" cx="99.999" cy="99.864" r="98.944"/>
<g>
	<rect x="93.6" y="35.605" fill="#AD2D2D" width="62.057" height="6.123"/>
	<rect x="93.6" y="53.972" fill="#AD2D2D" width="62.057" height="6.123"/>
	<rect x="93.6" y="44.789" fill="#AD2D2D" width="44.802" height="6.122"/>
	<rect x="93.6" y="63.156" fill="#AD2D2D" width="44.802" height="6.122"/>
	<rect x="38.033" y="29.294" fill="#AD2D2D" width="48.235" height="48.235"/>
	<rect x="38.033" y="94.88" fill="#AD2D2D" width="62.057" height="6.122"/>
	<rect x="38.033" y="113.246" fill="#AD2D2D" width="62.057" height="6.122"/>
	<rect x="55.286" y="104.062" fill="#AD2D2D" width="44.804" height="6.123"/>
	<rect x="55.286" y="122.43" fill="#AD2D2D" width="44.804" height="6.122"/>
	<rect x="107.423" y="88.568" fill="#AD2D2D" width="48.234" height="48.237"/>
	<path fill="#AD2D2D" d="M88.312,161.109c0,5.228-4.236,9.463-9.461,9.463H47.684c-5.226,0-9.461-4.235-9.461-9.463l0,0
		c0-5.226,4.236-9.461,9.461-9.461h31.167C84.077,151.648,88.312,155.885,88.312,161.109L88.312,161.109z"/>
	<rect x="95.359" y="162.225" fill="#AD2D2D" width="62.057" height="6.121"/>
	<rect x="95.359" y="153.041" fill="#AD2D2D" width="44.803" height="6.122"/>
</g>
<polygon fill="#FFFDFD" points="131.625,82.995 131.625,121.98 128.285,121.98 128.285,76.311 112.688,76.311 112.688,121.98 
	108.975,121.98 108.975,76.311 93.382,76.311 93.382,121.98 89.67,121.98 89.67,46.607 74.075,46.607 74.075,116.6 70.361,116.6 
	70.361,101.204 66.648,91.249 53.153,99.053 61.845,122.352 61.968,122.352 74.075,153.171 134.038,153.171 146.695,122.352 
	146.848,122.352 146.848,82.995 "/>
</svg>
