<?xml version="1.0" encoding="utf-8"?>
<!-- Generator: Adobe Illustrator 15.0.2, SVG Export Plug-In . SVG Version: 6.00 Build 0)  -->
<!DOCTYPE svg PUBLIC "-//W3C//DTD SVG 1.1//EN" "http://www.w3.org/Graphics/SVG/1.1/DTD/svg11.dtd">
<svg version="1.1" id="Layer_1" xmlns="http://www.w3.org/2000/svg" xmlns:xlink="http://www.w3.org/1999/xlink" x="0px" y="0px"
	 width="200px" height="200px" viewBox="0 0 200 200" enable-background="new 0 0 200 200" xml:space="preserve">
<g id="design" display="none">
	<g display="inline">
		<rect x="36.777" y="77.779" fill="#AD2D2D" width="85.028" height="85.028"/>
		<polygon fill="#AD2D2D" points="73.845,40.713 73.845,70.718 128.866,70.718 128.866,125.741 158.874,125.741 158.874,40.713 		
			"/>
	</g>
	<g display="inline">
		<g>
			<polygon fill="#FFFDFD" points="147.837,50.782 81.711,109.458 93.23,123.812 153.956,56.9 			"/>
			<g>
				<path fill="#FFFDFD" d="M73.677,113.011c-6.055,0-11.266,3.562-13.691,8.695c-0.012-0.015-0.025-0.028-0.039-0.041
					c-0.036,0.128-0.084,0.25-0.123,0.379c-0.301,0.679-0.547,1.386-0.746,2.117c-6.808,17.114-14.211,25.185-14.211,25.185
					s14.53-0.039,14.674-0.047c7.489-0.33,14.786-2.695,20.073-5.965c5.418-3.867,8.813-7.859,9.151-14.393l-13.46-15.84
					C74.77,113.045,74.228,113.011,73.677,113.011z"/>
			</g>
		</g>
	</g>
</g>
<g id="develop" display="none">
	<g display="inline">
		<rect x="19.528" y="17.877" fill="#AD2D2D" width="69.285" height="6.835"/>
		<rect x="19.528" y="38.383" fill="#AD2D2D" width="69.285" height="6.835"/>
		<rect x="19.528" y="28.13" fill="#AD2D2D" width="50.021" height="6.835"/>
		<rect x="19.528" y="48.636" fill="#AD2D2D" width="50.021" height="6.835"/>
		<rect x="20.149" y="100.211" fill="#AD2D2D" width="50.021" height="6.835"/>
		<rect x="20.149" y="162.35" fill="#AD2D2D" width="50.021" height="6.836"/>
		<rect x="20.149" y="172.293" fill="#AD2D2D" width="50.021" height="6.834"/>
		<rect x="36.927" y="58.889" fill="#AD2D2D" width="69.285" height="6.835"/>
		<rect x="36.927" y="79.395" fill="#AD2D2D" width="69.285" height="6.835"/>
		<rect x="36.927" y="111.086" fill="#AD2D2D" width="69.285" height="6.835"/>
		<rect x="60.54" y="121.027" fill="#AD2D2D" width="69.285" height="6.836"/>
		<rect x="60.54" y="130.971" fill="#AD2D2D" width="69.285" height="6.834"/>
		<rect x="36.927" y="69.142" fill="#AD2D2D" width="50.022" height="6.835"/>
		<rect x="60.54" y="141.223" fill="#AD2D2D" width="50.022" height="6.836"/>
		<rect x="36.927" y="89.647" fill="#AD2D2D" width="50.022" height="6.835"/>
		<rect x="36.927" y="151.787" fill="#AD2D2D" width="50.022" height="6.834"/>
		<g>
			<path fill="#FFFDFD" d="M30.1,98.66l48.494-25.939v12.331L43.71,103.547v0.23l34.884,18.496v12.33L30.1,108.664V98.66z"/>
			<path fill="#FFFDFD" d="M87.087,149.082l24.892-94.274h11.748l-24.892,94.274H87.087z"/>
			<path fill="#FFFDFD" d="M178.852,109.014l-48.492,25.59v-12.33l35.812-18.494v-0.231l-35.812-18.495V72.721l48.492,25.591
				V109.014z"/>
		</g>
	</g>
</g>
<g id="UIUX" display="none">
	<g display="inline">
		<rect x="94.965" y="28.521" fill="#AD2D2D" width="71.405" height="7.044"/>
		<rect x="94.965" y="49.654" fill="#AD2D2D" width="71.405" height="7.044"/>
		<rect x="94.965" y="39.088" fill="#AD2D2D" width="51.553" height="7.044"/>
		<rect x="94.965" y="60.221" fill="#AD2D2D" width="51.553" height="7.045"/>
		<rect x="31.027" y="21.259" fill="#AD2D2D" width="55.502" height="55.501"/>
		<rect x="31.027" y="96.724" fill="#AD2D2D" width="71.405" height="7.043"/>
		<rect x="31.027" y="117.857" fill="#AD2D2D" width="71.405" height="7.045"/>
		<rect x="50.879" y="107.291" fill="#AD2D2D" width="51.553" height="7.044"/>
		<rect x="50.879" y="128.425" fill="#AD2D2D" width="51.553" height="7.044"/>
		<rect x="110.869" y="89.462" fill="#AD2D2D" width="55.501" height="55.5"/>
		<path fill="#AD2D2D" d="M88.881,172.934c0,6.012-4.873,10.887-10.887,10.887H42.131c-6.013,0-10.887-4.875-10.887-10.887l0,0
			c0-6.014,4.874-10.889,10.887-10.889h35.863C84.008,162.045,88.881,166.92,88.881,172.934L88.881,172.934z"/>
		<rect x="96.988" y="174.213" fill="#AD2D2D" width="71.405" height="7.044"/>
		<rect x="96.988" y="163.646" fill="#AD2D2D" width="51.552" height="7.043"/>
	</g>
	<g display="inline">
		<rect x="72.498" y="41.18" fill="#FFFDFD" width="17.944" height="87.155"/>
		<rect x="94.714" y="75.358" fill="#FFFDFD" width="17.942" height="52.977"/>
		<rect x="116.93" y="75.358" fill="#FFFDFD" width="17.944" height="52.977"/>
		<rect x="138.718" y="83.049" fill="#FFFDFD" width="17.515" height="45.286"/>
		<polygon fill="#FFFDFD" points="68.225,128.335 68.225,104.001 63.953,92.547 48.425,101.525 58.425,128.335 		"/>
		<polygon fill="#FFFDFD" points="72.498,163.796 141.494,163.796 156.232,127.908 58.399,127.908 		"/>
		<rect x="64.167" y="121.714" fill="#FFFDFD" width="11.749" height="7.688"/>
	</g>
</g>
<circle fill="#E84A3F" cx="99.757" cy="99.864" r="97.944"/>
<g>
	<path fill="#AD2D2D" d="M37.411,58.012l2.851,4.875c0.833,1.486,1.608,2.913,2.38,4.339h0.116c0.775-1.604,1.487-3.033,2.262-4.458
		l2.554-4.755h9.812l-9.575,13.85l9.691,15.217H47.28l-2.914-5.231c-0.833-1.426-1.55-2.912-2.26-4.398h-0.179
		c-0.712,1.546-1.487,2.972-2.197,4.398l-2.735,5.231h-9.928l9.865-14.801l-9.628-14.267H37.411z"/>
</g>
<g>
	<path fill="#AD2D2D" d="M71.568,58.012l2.852,4.875c0.833,1.486,1.608,2.913,2.38,4.339h0.116c0.775-1.604,1.487-3.033,2.262-4.458
		l2.554-4.755h9.812l-9.575,13.85l9.691,15.217H81.438l-2.914-5.231c-0.833-1.426-1.55-2.912-2.26-4.398h-0.179
		c-0.712,1.546-1.487,2.972-2.197,4.398l-2.735,5.231h-9.928l9.865-14.801l-9.628-14.267H71.568z"/>
</g>
<g>
	<path fill="#AD2D2D" d="M138.232,124.677l2.852,4.872c0.833,1.487,1.607,2.914,2.38,4.339h0.116
		c0.774-1.604,1.487-3.03,2.262-4.457l2.555-4.754h9.812l-9.575,13.849l9.691,15.218h-10.223l-2.914-5.232
		c-0.833-1.427-1.549-2.911-2.26-4.396h-0.179c-0.712,1.545-1.486,2.97-2.197,4.396l-2.735,5.232h-9.928l9.865-14.803l-9.628-14.264
		H138.232z"/>
</g>
<g>
	<path fill="#AD2D2D" d="M75.247,127.605c0,10.221-7.249,14.903-14.733,14.903c-8.165,0-14.44-5.367-14.44-14.389
		c0-9.078,5.931-14.846,14.957-14.846C69.537,113.274,75.247,119.156,75.247,127.605z M55.036,127.892c0,4.795,2,8.394,5.709,8.394
		c3.422,0,5.538-3.366,5.538-8.449c0-4.11-1.599-8.338-5.538-8.338C56.635,119.498,55.036,123.781,55.036,127.892z"/>
</g>
<g>
	<path fill="#AD2D2D" d="M145.033,31.375c0,10.222-7.249,14.903-14.733,14.903c-8.165,0-14.44-5.367-14.44-14.389
		c0-9.078,5.931-14.845,14.957-14.845C139.323,17.044,145.033,22.926,145.033,31.375z M124.822,31.662c0,4.796,2,8.394,5.71,8.394
		c3.422,0,5.537-3.368,5.537-8.45c0-4.111-1.599-8.336-5.537-8.336C126.422,23.27,124.822,27.552,124.822,31.662z"/>
</g>
<g>
	
		<rect x="103.885" y="118.696" transform="matrix(0.9463 0.3231 -0.3231 0.9463 45.1649 -28.8014)" fill="#FFFDFD" width="10.87" height="5.841"/>
	
		<rect x="85.239" y="124.774" transform="matrix(0.9463 0.3234 -0.3234 0.9463 46.6795 -25.5588)" fill="#FFFDFD" width="30.03" height="5.841"/>
	
		<rect x="85.24" y="133.948" transform="matrix(0.9463 0.3232 -0.3232 0.9463 49.6213 -25.0581)" fill="#FFFDFD" width="30.028" height="5.841"/>
	
		<rect x="93.881" y="142.676" transform="matrix(0.9463 0.3232 -0.3232 0.9463 52.4101 -24.4275)" fill="#FFFDFD" width="11.751" height="5.838"/>
	<circle fill="#FFFDFD" cx="100.142" cy="74.232" r="35.198"/>
	<polygon fill="#FFFDFD" points="115.116,115.268 85.947,115.268 73.497,96.597 127.562,96.597 	"/>
</g>
<g>
	<defs>
		<circle id="SVGID_1_" cx="100.144" cy="99.864" r="91.884"/>
	</defs>
	<clipPath id="SVGID_2_">
		<use xlink:href="#SVGID_1_"  overflow="visible"/>
	</clipPath>
	<g clip-path="url(#SVGID_2_)">
		<rect x="59.954" y="164.152" fill="#AD2D2D" width="111.574" height="3.282"/>
		<rect x="168.906" y="79.011" fill="#AD2D2D" width="3.279" height="88.424"/>
		<polygon fill="#AD2D2D" points="180.114,83.729 170.606,72.709 160.974,83.729 160.974,80.449 170.537,69.428 180.114,80.444 		
			"/>
		<rect x="59.455" y="148.28" fill="#AD2D2D" width="3.28" height="19.154"/>
	</g>
</g>
</svg>
