<?xml version="1.0" encoding="utf-8"?>
<!-- Generator: Adobe Illustrator 15.0.2, SVG Export Plug-In . SVG Version: 6.00 Build 0)  -->
<!DOCTYPE svg PUBLIC "-//W3C//DTD SVG 1.1//EN" "http://www.w3.org/Graphics/SVG/1.1/DTD/svg11.dtd">
<svg version="1.1" id="Layer_1" xmlns="http://www.w3.org/2000/svg" xmlns:xlink="http://www.w3.org/1999/xlink" x="0px" y="0px"
	 width="200px" height="200px" viewBox="0 0 200 200" enable-background="new 0 0 200 200" xml:space="preserve">
<g id="develop" display="none">
	<g display="inline">
		<rect x="19.528" y="17.877" fill="#AD2D2D" width="69.285" height="6.835"/>
		<rect x="19.528" y="38.383" fill="#AD2D2D" width="69.285" height="6.835"/>
		<rect x="19.528" y="28.13" fill="#AD2D2D" width="50.021" height="6.835"/>
		<rect x="19.528" y="48.636" fill="#AD2D2D" width="50.021" height="6.835"/>
		<rect x="20.149" y="100.211" fill="#AD2D2D" width="50.021" height="6.835"/>
		<rect x="20.149" y="162.35" fill="#AD2D2D" width="50.021" height="6.836"/>
		<rect x="20.149" y="172.293" fill="#AD2D2D" width="50.021" height="6.834"/>
		<rect x="36.927" y="58.889" fill="#AD2D2D" width="69.285" height="6.835"/>
		<rect x="36.927" y="79.395" fill="#AD2D2D" width="69.285" height="6.835"/>
		<rect x="36.927" y="111.086" fill="#AD2D2D" width="69.285" height="6.835"/>
		<rect x="60.54" y="121.027" fill="#AD2D2D" width="69.285" height="6.836"/>
		<rect x="60.54" y="130.971" fill="#AD2D2D" width="69.285" height="6.834"/>
		<rect x="36.927" y="69.142" fill="#AD2D2D" width="50.022" height="6.835"/>
		<rect x="60.54" y="141.223" fill="#AD2D2D" width="50.022" height="6.836"/>
		<rect x="36.927" y="89.647" fill="#AD2D2D" width="50.022" height="6.835"/>
		<rect x="36.927" y="151.787" fill="#AD2D2D" width="50.022" height="6.834"/>
		<g>
			<path fill="#FFFDFD" d="M30.1,98.66l48.494-25.939v12.331L43.71,103.547v0.23l34.884,18.496v12.33L30.1,108.664V98.66z"/>
			<path fill="#FFFDFD" d="M87.087,149.082l24.892-94.274h11.748l-24.892,94.274H87.087z"/>
			<path fill="#FFFDFD" d="M178.852,109.014l-48.492,25.59v-12.33l35.812-18.494v-0.231l-35.812-18.495V72.721l48.492,25.591
				V109.014z"/>
		</g>
	</g>
</g>
<g id="UIUX" display="none">
	<g display="inline">
		<rect x="94.965" y="28.521" fill="#AD2D2D" width="71.405" height="7.044"/>
		<rect x="94.965" y="49.654" fill="#AD2D2D" width="71.405" height="7.044"/>
		<rect x="94.965" y="39.088" fill="#AD2D2D" width="51.553" height="7.044"/>
		<rect x="94.965" y="60.221" fill="#AD2D2D" width="51.553" height="7.045"/>
		<rect x="31.027" y="21.259" fill="#AD2D2D" width="55.502" height="55.501"/>
		<rect x="31.027" y="96.724" fill="#AD2D2D" width="71.405" height="7.043"/>
		<rect x="31.027" y="117.857" fill="#AD2D2D" width="71.405" height="7.045"/>
		<rect x="50.879" y="107.291" fill="#AD2D2D" width="51.553" height="7.044"/>
		<rect x="50.879" y="128.425" fill="#AD2D2D" width="51.553" height="7.044"/>
		<rect x="110.869" y="89.462" fill="#AD2D2D" width="55.501" height="55.5"/>
		<path fill="#AD2D2D" d="M88.881,172.934c0,6.012-4.873,10.887-10.887,10.887H42.131c-6.013,0-10.887-4.875-10.887-10.887l0,0
			c0-6.014,4.874-10.889,10.887-10.889h35.863C84.008,162.045,88.881,166.92,88.881,172.934L88.881,172.934z"/>
		<rect x="96.988" y="174.213" fill="#AD2D2D" width="71.405" height="7.044"/>
		<rect x="96.988" y="163.646" fill="#AD2D2D" width="51.552" height="7.043"/>
	</g>
	<g display="inline">
		<rect x="72.498" y="41.18" fill="#FFFDFD" width="17.944" height="87.155"/>
		<rect x="94.714" y="75.358" fill="#FFFDFD" width="17.942" height="52.977"/>
		<rect x="116.93" y="75.358" fill="#FFFDFD" width="17.944" height="52.977"/>
		<rect x="138.718" y="83.049" fill="#FFFDFD" width="17.515" height="45.286"/>
		<polygon fill="#FFFDFD" points="68.225,128.335 68.225,104.001 63.953,92.547 48.425,101.525 58.425,128.335 		"/>
		<polygon fill="#FFFDFD" points="72.498,163.796 141.494,163.796 156.232,127.908 58.399,127.908 		"/>
		<rect x="64.167" y="121.714" fill="#FFFDFD" width="11.749" height="7.688"/>
	</g>
</g>
<g id="Strategy" display="none">
	<g display="inline">
		<rect x="52.365" y="177.662" fill="#AD2D2D" width="119.305" height="3.51"/>
		<rect x="168.867" y="86.621" fill="#AD2D2D" width="3.507" height="94.551"/>
		<polygon fill="#AD2D2D" points="180.852,91.666 170.686,79.883 160.385,91.666 160.385,87.159 170.611,75.374 180.852,87.154 		
			"/>
		<rect x="51.831" y="160.689" fill="#AD2D2D" width="3.507" height="20.481"/>
	</g>
	<g display="inline">
		<path fill="#AD2D2D" d="M28.26,64.167l3.049,5.212c0.891,1.589,1.719,3.115,2.545,4.639h0.125c0.828-1.715,1.59-3.242,2.418-4.767
			l2.731-5.084H49.62l-10.238,14.81l10.362,16.272H38.813l-3.116-5.594c-0.891-1.524-1.657-3.113-2.416-4.703H33.09
			c-0.762,1.653-1.59,3.178-2.35,4.703l-2.925,5.594H17.2l10.549-15.827L17.453,64.167H28.26z"/>
	</g>
	<g display="inline">
		<path fill="#AD2D2D" d="M64.785,64.167l3.049,5.212c0.891,1.589,1.719,3.115,2.545,4.639h0.125
			c0.829-1.715,1.59-3.242,2.418-4.767l2.731-5.084h10.492l-10.238,14.81l10.362,16.272H75.338l-3.116-5.594
			c-0.89-1.524-1.657-3.113-2.416-4.703h-0.191c-0.762,1.653-1.59,3.178-2.35,4.703l-2.925,5.594H53.725l10.549-15.827
			L53.979,64.167H64.785z"/>
	</g>
	<g display="inline">
		<path fill="#AD2D2D" d="M136.066,135.451l3.05,5.21c0.891,1.59,1.72,3.114,2.546,4.639h0.124c0.827-1.714,1.59-3.239,2.419-4.766
			l2.73-5.083h10.491l-10.237,14.809l10.361,16.271H146.62l-3.116-5.596c-0.891-1.524-1.656-3.112-2.416-4.701h-0.191
			c-0.762,1.652-1.59,3.177-2.35,4.701l-2.925,5.596h-10.615l10.55-15.828l-10.297-15.252H136.066L136.066,135.451z"/>
	</g>
	<g display="inline">
		<path fill="#AD2D2D" d="M68.718,138.583c0,10.929-7.75,15.937-15.754,15.937c-8.731,0-15.441-5.74-15.441-15.387
			c0-9.706,6.342-15.874,15.993-15.874C62.612,123.259,68.718,129.548,68.718,138.583z M47.107,138.889
			c0,5.127,2.138,8.976,6.105,8.976c3.659,0,5.921-3.599,5.921-9.034c0-4.396-1.709-8.915-5.921-8.915
			C48.817,129.914,47.107,134.493,47.107,138.889z"/>
	</g>
	<g display="inline">
		<path fill="#AD2D2D" d="M143.34,35.685c0,10.93-7.751,15.936-15.755,15.936c-8.729,0-15.44-5.739-15.44-15.386
			c0-9.707,6.342-15.874,15.994-15.874C137.234,20.361,143.34,26.65,143.34,35.685z M121.729,35.991
			c0,5.128,2.139,8.976,6.105,8.976c3.658,0,5.921-3.601,5.921-9.036c0-4.396-1.71-8.914-5.921-8.914
			C123.438,27.018,121.729,31.597,121.729,35.991z"/>
	</g>
	<g display="inline">
		
			<rect x="99.335" y="129.062" transform="matrix(-0.9464 -0.3231 0.3231 -0.9464 161.9409 291.2558)" fill="#FFFDFD" width="11.624" height="6.247"/>
		
			<rect x="79.411" y="135.554" transform="matrix(-0.9463 -0.3233 0.3233 -0.9463 140.9702 300.7691)" fill="#FFFDFD" width="32.111" height="6.244"/>
		
			<rect x="79.407" y="145.359" transform="matrix(-0.9463 -0.3232 0.3232 -0.9463 137.8107 319.8468)" fill="#FFFDFD" width="32.107" height="6.245"/>
		
			<rect x="88.648" y="154.698" transform="matrix(-0.9463 -0.3233 0.3233 -0.9463 133.7388 337.8526)" fill="#FFFDFD" width="12.565" height="6.242"/>
		<circle fill="#FFFDFD" cx="95.338" cy="81.511" r="37.636"/>
		<polygon fill="#FFFDFD" points="111.35,125.391 80.159,125.391 66.847,105.426 124.658,105.426 		"/>
	</g>
</g>
<circle fill="#E84A3F" cx="99.77" cy="99.864" r="98.944"/>
<g>
	<rect x="37.563" y="76.973" fill="#AD2D2D" width="83.987" height="83.986"/>
	<polygon fill="#AD2D2D" points="74.177,40.36 74.177,69.999 128.524,69.999 128.524,124.347 158.163,124.347 158.163,40.36 	"/>
</g>
<g>
	<g>
		<polygon fill="#FFFDFD" points="147.263,50.307 81.947,108.264 93.325,122.442 153.307,56.35 		"/>
		<g>
			<path fill="#FFFDFD" d="M74.01,111.772c-5.981,0-11.128,3.518-13.524,8.59c-0.012-0.016-0.025-0.028-0.038-0.042
				c-0.036,0.127-0.083,0.248-0.122,0.374c-0.296,0.67-0.54,1.37-0.737,2.092c-6.725,16.905-14.037,24.876-14.037,24.876
				s14.353-0.039,14.495-0.046c7.397-0.326,14.604-2.663,19.828-5.892c5.352-3.82,8.705-7.764,9.039-14.217l-13.294-15.645
				C75.09,111.807,74.555,111.772,74.01,111.772z"/>
		</g>
	</g>
</g>
</svg>
